<svg width="400" height="320" viewBox="0 0 400 320" xmlns="http://www.w3.org/2000/svg">
  <defs>
    <linearGradient id="skyGrad" x1="0" y1="0" x2="0" y2="1">
      <stop offset="0%" stop-color="#0F6F6B"/>
      <stop offset="100%" stop-color="#BFE3DF"/>
    </linearGradient>
  </defs>

  <rect width="400" height="320" fill="url(#skyGrad)"/>

  <g fill="#ffffff" opacity="0.9">
    <circle cx="50" cy="40" r="2"/>
    <circle cx="90" cy="70" r="1.5"/>
    <circle cx="330" cy="50" r="2"/>
    <circle cx="300" cy="90" r="1.5"/>
    <circle cx="150" cy="30" r="1.5"/>
    <circle cx="250" cy="35" r="1.5"/>
    <circle cx="70" cy="110" r="1.2"/>
    <circle cx="320" cy="120" r="1.2"/>
  </g>

  <g transform="translate(200,60)">
    <path d="M10 -15 A15 15 0 1 0 10 15 A11 11 0 1 1 10 -15Z" fill="#ffffff"/>
    <path d="M24 -18 l2 4 l4 1 l-3 3 l1 4 l-4 -2 l-4 2 l1 -4 l-3 -3 l4 -1 Z" fill="#ffffff"/>
  </g>

  <g transform="translate(35,0)">
    <line x1="0" y1="0" x2="0" y2="35" stroke="#0F6F6B" stroke-width="1.5"/>
    <rect x="-10" y="35" width="20" height="26" rx="4" fill="#1E3A5F"/>
    <rect x="-13" y="32" width="26" height="6" rx="2" fill="#0F6F6B"/>
    <rect x="-6" y="41" width="12" height="14" rx="2" fill="#F6F1E9" opacity="0.85"/>
    <circle cx="0" cy="63" r="3" fill="#0F6F6B"/>
  </g>

  <g transform="translate(365,0)">
    <line x1="0" y1="0" x2="0" y2="35" stroke="#0F6F6B" stroke-width="1.5"/>
    <rect x="-10" y="35" width="20" height="26" rx="4" fill="#1E3A5F"/>
    <rect x="-13" y="32" width="26" height="6" rx="2" fill="#0F6F6B"/>
    <rect x="-6" y="41" width="12" height="14" rx="2" fill="#F6F1E9" opacity="0.85"/>
    <circle cx="0" cy="63" r="3" fill="#0F6F6B"/>
  </g>

  <g transform="translate(45,230)" opacity="0.55">
    <path d="M0 90 L4 30" stroke="#0F6F6B" stroke-width="5" fill="none"/>
    <path d="M4 30 Q-25 20 -35 40" stroke="#0F6F6B" stroke-width="4" fill="none"/>
    <path d="M4 30 Q35 20 42 42" stroke="#0F6F6B" stroke-width="4" fill="none"/>
    <path d="M4 30 Q-15 8 -30 5" stroke="#0F6F6B" stroke-width="4" fill="none"/>
    <path d="M4 30 Q22 8 35 8" stroke="#0F6F6B" stroke-width="4" fill="none"/>
    <path d="M4 30 Q4 0 4 -8" stroke="#0F6F6B" stroke-width="4" fill="none"/>
  </g>

  <g transform="translate(355,230)" opacity="0.55">
    <path d="M0 90 L-4 30" stroke="#0F6F6B" stroke-width="5" fill="none"/>
    <path d="M-4 30 Q25 20 35 40" stroke="#0F6F6B" stroke-width="4" fill="none"/>
    <path d="M-4 30 Q-35 20 -42 42" stroke="#0F6F6B" stroke-width="4" fill="none"/>
    <path d="M-4 30 Q15 8 30 5" stroke="#0F6F6B" stroke-width="4" fill="none"/>
    <path d="M-4 30 Q-22 8 -35 8" stroke="#0F6F6B" stroke-width="4" fill="none"/>
    <path d="M-4 30 Q-4 0 -4 -8" stroke="#0F6F6B" stroke-width="4" fill="none"/>
  </g>

  <g fill="#0F6F6B" opacity="0.7">
    <rect x="60" y="255" width="10" height="55"/>
    <polygon points="55,255 75,255 65,238"/>
    <circle cx="65" cy="234" r="3"/>

    <rect x="95" y="240" width="50" height="70"/>
    <path d="M95 240 Q120 210 145 240 Z"/>

    <rect x="150" y="215" width="10" height="95"/>
    <polygon points="145,215 165,215 155,195"/>
    <circle cx="155" cy="191" r="3"/>

    <rect x="165" y="230" width="70" height="80"/>
    <path d="M165 230 Q200 175 235 230 Z"/>
    <rect x="196" y="165" width="8" height="15"/>
    <circle cx="200" cy="162" r="4"/>

    <rect x="240" y="215" width="10" height="95"/>
    <polygon points="235,215 255,215 245,195"/>
    <circle cx="245" cy="191" r="3"/>

    <rect x="255" y="240" width="50" height="70"/>
    <path d="M255 240 Q280 210 305 240 Z"/>

    <rect x="330" y="255" width="10" height="55"/>
    <polygon points="325,255 345,255 335,238"/>
    <circle cx="335" cy="234" r="3"/>
  </g>
</svg>